<svg width="16" height="20" viewBox="0 0 16 20" fill="none" xmlns="http://www.w3.org/2000/svg">
<g id="Group 20">
<path id="Vector" d="M14.2857 7.85714C14.2857 6.15218 13.6084 4.51705 12.4028 3.31146C11.1972 2.10587 9.56211 1.42857 7.85714 1.42857C6.15218 1.42857 4.51705 2.10587 3.31146 3.31146C2.10587 4.51705 1.42857 6.15218 1.42857 7.85714C1.42857 10.4943 3.53857 13.9314 7.85714 18.0486C12.1757 13.9314 14.2857 10.4943 14.2857 7.85714ZM7.85714 20C2.61857 15.2386 0 11.19 0 7.85714C0 5.7733 0.827804 3.7748 2.3013 2.3013C3.7748 0.827804 5.7733 0 7.85714 0C9.94099 0 11.9395 0.827804 13.413 2.3013C14.8865 3.7748 15.7143 5.7733 15.7143 7.85714C15.7143 11.19 13.0957 15.2386 7.85714 20Z" fill="#777777"/>
<path id="Vector_2" d="M7.8572 10.0001C8.42552 10.0001 8.97056 9.77429 9.37242 9.37242C9.77429 8.97056 10.0001 8.42552 10.0001 7.8572C10.0001 7.28887 9.77429 6.74383 9.37242 6.34197C8.97056 5.9401 8.42552 5.71434 7.8572 5.71434C7.28887 5.71434 6.74383 5.9401 6.34197 6.34197C5.9401 6.74383 5.71434 7.28887 5.71434 7.8572C5.71434 8.42552 5.9401 8.97056 6.34197 9.37242C6.74383 9.77429 7.28887 10.0001 7.8572 10.0001ZM7.8572 11.4286C6.90999 11.4286 6.00159 11.0523 5.33181 10.3826C4.66204 9.7128 4.28577 8.8044 4.28577 7.8572C4.28577 6.90999 4.66204 6.00159 5.33181 5.33181C6.00159 4.66204 6.90999 4.28577 7.8572 4.28577C8.8044 4.28577 9.7128 4.66204 10.3826 5.33181C11.0523 6.00159 11.4286 6.90999 11.4286 7.8572C11.4286 8.8044 11.0523 9.7128 10.3826 10.3826C9.7128 11.0523 8.8044 11.4286 7.8572 11.4286Z" fill="#777777"/>
</g>
</svg>
